<?xml version="1.0" encoding="UTF-8"?>
<svg width="134px" height="44px" viewBox="0 0 134 44" version="1.1" xmlns="http://www.w3.org/2000/svg" xmlns:xlink="http://www.w3.org/1999/xlink">
    <!-- Generator: Sketch 49.1 (51147) - http://www.bohemiancoding.com/sketch -->
    <title>logo</title>
    <desc>Created with Sketch.</desc>
    <defs>
        <polygon id="path-1" points="0.000174782609 0.43824 24.4120617 0.43824 24.4120617 35.281664 0.000174782609 35.281664 0.000174782609 0.43824"></polygon>
    </defs>
    <g id="Symbols" stroke="none" stroke-width="1" fill="none" fill-rule="evenodd">
        <g id="nav" transform="translate(-165.000000, -31.000000)">
            <g id="logo" transform="translate(165.000000, 31.000000)">
                <path d="M39.9621209,21.7276693 L46.2304078,16.685856 C46.8788513,16.1637227 47.2354078,15.4321493 47.2354078,14.6260693 C47.2354078,13.1787627 46.1098078,12.044736 44.6725122,12.044736 C44.0083383,12.044736 43.4268948,12.2606293 42.9736252,12.6613227 L34.5642513,19.586336 L34.5642513,3.626656 C34.5642513,2.17876267 33.4386513,1.044736 32.0013557,1.044736 C30.5634774,1.044736 29.4378774,2.17876267 29.4378774,3.626656 L29.4378774,32.4894827 C29.4378774,33.9367893 30.5634774,35.0702293 32.0013557,35.0702293 C33.4386513,35.0702293 34.5642513,33.9367893 34.5642513,32.4894827 L34.5642513,25.968096 L35.8722078,24.9097493 L42.8885643,33.9702293 C43.4688426,34.7000427 44.1866165,35.0702293 45.0220774,35.0702293 C46.459373,35.0702293 47.5855557,33.9367893 47.5855557,32.4894827 C47.5855557,31.846496 47.3932948,31.3091093 47.0344078,30.889056 L39.9621209,21.7276693 Z" id="Fill-1" fill="#FFFFFF"></path>
                <path d="M53.9356409,4.47714667 C52.1662583,4.47714667 51.1099887,5.57362667 51.1099887,7.40989333 C51.1099887,9.11181333 52.2460757,10.2558133 53.9356409,10.2558133 C55.6257887,10.2558133 56.7618757,9.11181333 56.7618757,7.40989333 C56.7618757,5.57362667 55.7050235,4.47714667 53.9356409,4.47714667" id="Fill-3" fill="#FFFFFF"></path>
                <path d="M53.9356409,12.0447947 C52.4983452,12.0447947 51.3727452,13.1788213 51.3727452,14.6255413 L51.3727452,32.4895413 C51.3727452,33.9362613 52.4983452,35.070288 53.9356409,35.070288 C55.3735191,35.070288 56.4991191,33.9362613 56.4991191,32.4895413 L56.4991191,14.6255413 C56.4991191,13.1788213 55.3735191,12.0447947 53.9356409,12.0447947" id="Fill-5" fill="#FFFFFF"></path>
                <path d="M67.7430009,30.08368 C67.44354,30.08368 67.1609748,30.08368 67.1609748,28.7496 L67.1609748,3.62618667 C67.1609748,2.20293333 66.0109052,1.04485333 64.5974965,1.04485333 C63.2079748,1.04485333 62.0340183,2.22757333 62.0340183,3.62618667 L62.0340183,28.7496 C62.0340183,32.7665067 64.1145139,35.0703467 67.7430009,35.0703467 C69.1086357,35.0703467 70.2190878,33.95216 70.2190878,32.5770133 C70.2190878,31.2024533 69.1086357,30.08368 67.7430009,30.08368" id="Fill-7" fill="#FFFFFF"></path>
                <path d="M79.0071574,30.08368 C78.7071139,30.08368 78.4245487,30.08368 78.4245487,28.7496 L78.4245487,3.62618667 C78.4245487,2.20293333 77.2744791,1.04485333 75.861653,1.04485333 C74.4721313,1.04485333 73.2975922,2.22757333 73.2975922,3.62618667 L73.2975922,28.7496 C73.2975922,32.7665067 75.3786704,35.0703467 79.0071574,35.0703467 C80.3722096,35.0703467 81.4832443,33.95216 81.4832443,32.5770133 C81.4832443,31.2024533 80.3722096,30.08368 79.0071574,30.08368" id="Fill-9" fill="#FFFFFF"></path>
                <path d="M93.7572948,20.961072 C91.2316861,20.084592 89.6976774,19.4697653 89.6976774,18.3216587 C89.6976774,17.3489653 90.6141209,16.854992 92.421373,16.854992 C94.4022426,16.854992 95.4352078,17.4627787 96.3603904,18.3586187 C96.6948078,18.6965387 97.2686774,19.098992 98.1018078,19.098992 C99.442973,19.098992 100.534199,18.0001653 100.534199,16.6496587 C100.534199,15.918672 100.226582,15.4211787 99.992373,15.1067253 C98.4035991,12.990032 95.7142774,11.824912 92.421373,11.824912 C87.5793122,11.824912 84.5707209,14.3141387 84.5707209,18.3216587 C84.5707209,23.189232 88.923973,24.6717387 92.1021035,25.7541387 C94.5665383,26.5942453 96.0626774,27.1820853 96.0626774,28.265072 C96.0626774,29.877232 94.1779383,30.2157387 92.5961557,30.2157387 C90.6001383,30.2157387 89.0987557,29.6402187 87.8706165,28.404112 C87.2279991,27.7558453 86.5451817,27.6203253 86.0860861,27.6203253 C84.7449209,27.6203253 83.6536948,28.719152 83.6536948,30.069072 C83.6536948,30.757232 83.9176165,31.2224587 84.2089209,31.6313653 C85.6170861,33.430672 88.7561817,35.2464053 92.5961557,35.2464053 C97.8967296,35.2464053 101.189634,32.5712053 101.189634,28.265072 C101.189634,23.539472 96.89406,22.048752 93.7572948,20.961072" id="Fill-11" fill="#FFFFFF"></path>
                <path d="M123.514675,15.577408 C123.576431,15.4078613 123.69237,15.091648 123.69237,14.6258347 C123.69237,13.178528 122.566188,12.045088 121.128892,12.045088 C120.027762,12.045088 119.155597,12.650528 118.739614,13.697728 L113.657518,26.220128 L108.578336,13.706528 C108.15944,12.650528 107.286692,12.045088 106.185562,12.045088 C104.748266,12.045088 103.622083,13.178528 103.622083,14.6258347 C103.622083,15.091648 103.738605,15.4078613 103.813762,15.6137813 L110.954214,32.7168747 C109.195901,37.0623147 108.385492,38.575328 105.617518,38.575328 C104.229162,38.575328 103.141431,39.6706347 103.141431,41.0686613 C103.141431,42.466688 104.229162,43.5619947 105.617518,43.5619947 C111.117344,43.5619947 113.377866,39.905888 114.862353,36.331328 L123.470397,15.6959147 L123.514675,15.577408 Z" id="Fill-13" fill="#FFFFFF"></path>
                <path d="M128.761008,26.9377973 C126.631573,26.9377973 125.409843,28.1885707 125.409843,30.3697973 C125.409843,32.514064 126.631573,33.744304 128.761008,33.744304 C130.890443,33.744304 132.11159,32.514064 132.11159,30.3697973 C132.11159,28.1885707 130.890443,26.9377973 128.761008,26.9377973 M128.761008,35.504304 C125.66386,35.504304 123.662017,33.4885173 123.662017,30.3697973 C123.662017,27.2158773 125.66386,25.1777973 128.761008,25.1777973 C131.858156,25.1777973 133.859417,27.2158773 133.859417,30.3697973 C133.859417,33.4885173 131.858156,35.504304 128.761008,35.504304" id="Fill-15" fill="#E25455"></path>
                <g id="Group-19" transform="translate(0.000000, 0.148661)">
                    <mask id="mask-2" fill="white">
                        <use xlink:href="#path-1"></use>
                    </mask>
                    <g id="Clip-18"></g>
                    <path d="M13.7048791,14.3969173 C9.63302696,12.9971307 7.1371313,12.0168107 7.1371313,9.59915733 C7.1371313,7.19851733 9.03410522,5.87675733 12.479653,5.87675733 C15.9438443,5.87675733 17.7953748,7.677824 18.8807748,9.025984 C19.4441574,9.735264 20.2009661,10.1095573 21.0719661,10.1095573 C22.6112183,10.1095573 23.8172183,8.895744 23.8172183,7.34459733 C23.8172183,6.773184 23.6575835,6.252224 23.327827,5.754144 C21.0917748,2.37553067 17.1376096,0.437770667 12.479653,0.437770667 C4.34818348,0.437770667 1.46252261,5.37339733 1.46252261,9.59915733 C1.46252261,16.3153173 7.16859217,18.1773973 11.75314,19.673984 C16.0830878,21.087264 18.7368704,22.1039573 18.7368704,25.0619307 C18.7368704,26.244064 18.7368704,29.843264 12.1603835,29.843264 C8.03143565,29.843264 5.97599217,27.4895573 5.12596609,26.0991573 C4.6179313,25.2455573 3.72770522,24.735744 2.74600957,24.735744 C1.20617478,24.735744 0.000174782609,25.9495573 0.000174782609,27.500704 C0.000174782609,28.062144 0.139418261,28.4552107 0.374792174,28.9286507 C1.8971487,31.8590507 5.89792261,35.281664 12.1603835,35.281664 C19.9463661,35.281664 24.4120617,31.5563307 24.4120617,25.0619307 C24.4120617,18.0764907 18.4752791,16.0366507 13.7048791,14.3969173" id="Fill-17" fill="#FFFFFF" mask="url(#mask-2)"></path>
                </g>
            </g>
        </g>
    </g>
</svg>